<?xml version="1.0" encoding="UTF-8"?>
<svg id="Layer_2" data-name="Layer 2" xmlns="http://www.w3.org/2000/svg" viewBox="0 0 214.17 161.18">
  <defs>
    <style>
      .cls-1 {
        fill: #fef8f2;
        stroke-width: 0px;
      }
    </style>
  </defs>
  <g id="icon2">
    <g>
      <path class="cls-1" d="m68.65,2.63C60.38.54,51.83-.23,43.3.06L0,1.56v156.68h32.07v-49.95s79.92,14.2,79.92-57.31c0-26.06-18.4-42.05-43.33-48.35Zm1.73,70.3c-5.83,4.96-13.27,7.5-20.84,7.5h-17.99V29.42h20.31c5.22,0,10.4,1.17,15.02,3.64,6.16,3.29,12.65,10.74,12.65,21.86,0,9-4.25,13.85-9.14,18Z"/>
      <path class="cls-1" d="m208.21,43.27v28.92s-35.23-15.95-47.85-4.21c0,0-8.06,8.41,17.18,17,25.24,8.59,36.8,20.68,36.63,36.98-.18,16.3-7.01,28.39-29.27,36.28-22.26,7.89-52.05-2.28-56.61-5.26v-29.09s20.6,13.11,42.94,9.64c18.05-2.8,10.16-13.85,1.75-17-22.78-8.54-39.08-16.65-43.46-35.23-4.27-18.12,6.29-33.91,20.96-39.39.54-.2,1.09-.39,1.63-.61,3.45-1.39,24.18-8.72,56.1,1.97Z"/>
    </g>
  </g>
</svg>