<?xml version="1.0" encoding="UTF-8"?>
<svg id="Layer_2" data-name="Layer 2" xmlns="http://www.w3.org/2000/svg" viewBox="0 0 204.23 225.52">
  <defs>
    <style>
      .cls-1 {
        fill: #fef8f2;
        stroke-width: 0px;
      }
    </style>
  </defs>
  <g id="icon2">
    <path class="cls-1" d="m197.95,173.82l-91.8,51.7v-40.27l57.2-31.33,34.6,19.89h0Zm6.28-5.66V60.03l-33.6,19.3v69.5l33.6,19.33Zm-197.95,5.66l91.8,51.7v-40.27l-57.2-31.33-34.6,19.89h0Zm-6.28-5.66V60.03l33.59,19.3v69.5L0,168.16ZM3.93,53.04L98.08,0v38.93l-60.32,33.03-.46.26L3.93,53.04Zm196.37,0L106.14,0v38.93l60.32,33.03.46.26,33.38-19.19h0Zm-102.21,123.06l-56.43-30.89v-61.21l56.43,32.44v59.66h0Zm8.06,0l56.43-30.89v-61.21l-56.43,32.44v59.66Zm-60.67-99.19l56.65-31.02,56.65,31.02-56.65,32.57-56.65-32.57Z"/>
  </g>
</svg>