<?xml version="1.0" encoding="UTF-8"?>
<svg id="Layer_2" data-name="Layer 2" xmlns="http://www.w3.org/2000/svg" viewBox="0 0 301.34 100.24">
  <defs>
    <style>
      .cls-1 {
        fill: #fef8f2;
        stroke-width: 0px;
      }
    </style>
  </defs>
  <g id="icon2">
    <g>
      <path class="cls-1" d="m50.79,64.15c-1.31-.15-2.22-.32-3.13-.34q-6.31-.19-4.9-5.78c.82-3.21,1.63-6.42,2.45-9.64.52-2.18,1.63-3.3,4.4-3.27,11.43.14,22.86.13,34.22,0,2.9,0,3.63,1.03,3.07,3.32-1.06,4.29-1.96,8.63-3.38,12.82-.36,1.08-2.45,2.46-3.67,2.37-3.46-.22-4.6,1.25-5.57,3.95-3.03,8.85-7.26,17.14-14.8,23.7-10,8.7-30.27,11.66-42.23,5.97-10.67-5.08-15.62-13.93-16.72-24.19C-1.68,52.98,2.87,34.02,15.81,17.33,25.97,4.22,40.07-1.91,58,.97c12.25,1.96,20.04,10.39,21.61,22.78.32,2.54.54,5.1.82,7.66.24,2.26-.95,3.02-3.37,2.95-6.25-.09-12.51-.09-18.77,0-2.28,0-3.71-.46-3.51-2.84,0-.61-.11-1.22-.3-1.81-.73-3.27-1.34-6.81-5.61-7.76-4.73-1.05-8.85.74-11.27,4.26-3.5,4.9-6.48,10.08-8.9,15.49-3.7,8.74-4.95,18.18-3.64,27.47,1.15,8.7,8.86,12.23,16.95,7.46,4.85-2.85,7.42-7.19,8.77-12.48Z"/>
      <path class="cls-1" d="m135.11,98.6c.82-1.92,1.18-3.16,1.76-4.31,14.77-29.64,29.53-59.28,44.29-88.93,1.24-2.52,2.66-3.76,6-3.69,8.82.25,17.65.18,26.47,0,3.2-.05,4.55.61,4.55,3.85-.14,29.68-.16,59.36-.06,89.05,0,2.95-.87,4.17-4.36,4.04-6.1-.22-12.24-.18-18.32,0-2.91.08-3.97-.9-3.65-3.42.24-1.82.29-3.69.56-5.48.33-2.14-.34-3.19-2.99-3.14-6.64.1-13.31-.06-19.95.13-.67.1-1.31.33-1.87.68-.56.34-1.04.8-1.39,1.32-1.31,2-2.32,4.16-2.99,6.4-.82,3-2.8,3.61-5.93,3.53-7.1-.16-14.24-.02-22.13-.02Zm59.98-71.33l-1.31-.29-17.47,39.38c5.51,0,10.08.17,14.61-.15.9-.06,2.2-1.91,2.36-3.05.45-3.39.42-6.84.6-10.26.4-8.53.81-17.08,1.21-25.64Z"/>
      <path class="cls-1" d="m237.59,80.16c2.6,1.31,5.15,2.74,7.84,3.89,2.69,1.15,3.76,2.26,2.96,5.3-2.41,9.2-2.2,9.25-12.7,9.25h-9.8c-4.95,0-4.98,0-3.93-4.18,4.66-18.43,9.33-36.87,14.01-55.32,2.9-11.41,5.76-22.86,8.84-34.21.33-1.19,2.03-3.01,3.06-2.95,10.12.23,20.41-.13,30.33,1.48,14.92,2.38,22.65,11.98,23.11,25.82.44,13.23-2.99,25.24-12.94,35.27-8.38,8.42-19.11,13-31.59,14-5.39.44-10.85.14-16.28.23-.87.09-1.74.26-2.57.52-.11.3-.22.61-.33.91Zm18.78-22.73c4.63.79,8.12-.38,10.9-2.95,8.06-7.38,10.28-16.4,8.38-26.33-.82-4.25-3.44-6.01-8.25-6.14-4.2-.11-8.41-.06-12.61,0-.97.1-1.92.3-2.83.6,2.42,2.06,5.21,3.72,8.25,4.93,2.59,1.05,3.12,2.45,2.45,4.9-2.21,8.2-4.16,16.43-6.3,25h.02Z"/>
      <path class="cls-1" d="m152.91,30.08c-7.69,0-14.86.1-22.04-.13-.91,0-2.37-1.76-2.53-2.82-.82-5.56-3.57-8.11-8.28-7.32-4.71.8-7.58,5.08-5.41,9.65,1.98,4.15,5.15,7.92,8.28,11.51,3.27,3.74,7.49,6.81,10.61,10.63,10.61,13.1,9.03,31.82-3.92,41.64-4.16,3.09-9.12,5.19-14.42,6.09-11.54,1.84-23.13,1.61-31.95-7.14-5.9-5.9-6.78-13.14-6.24-20.65.05-.64,1.85-1.65,2.86-1.67,6.23-.16,12.47-.05,18.72-.1,2.16,0,3.36.63,3.07,2.79-.09.86-.05,1.72.11,2.57.68,3.63,2.98,5.55,6.42,5.42,3.44-.13,5.85-2.46,6.24-6.06.22-1.95-.03-3.92-.72-5.78-.69-1.86-1.82-3.56-3.3-5-4.63-4.79-9.65-9.3-14.02-14.26-10.86-12.32-10.91-27.67-.18-39.43,4.74-5.14,11.47-8.45,18.82-9.27,10.51-1.36,20.99-1.42,29.53,5.61,7.57,6.2,8.82,14.46,8.33,23.75Z"/>
    </g>
  </g>
</svg>