<?xml version="1.0" encoding="UTF-8"?>
<svg id="Layer_2" data-name="Layer 2" xmlns="http://www.w3.org/2000/svg" viewBox="0 0 215.4 215.4">
  <defs>
    <style>
      .cls-1 {
        fill: #fef8f2;
        stroke-width: 0px;
      }
    </style>
  </defs>
  <g id="icon2">
    <path class="cls-1" d="m192.68,61.25c7.54,13.79,11.83,29.62,11.83,46.44,0,35.71-19.35,66.92-48.13,83.69l29.57-85.5c5.52-13.82,7.36-24.87,7.36-34.68,0-3.63-.23-7-.63-9.96m-71.63.94c5.81-.27,11.06-.94,11.06-.94,5.22-.67,4.61-8.35-.6-8.07,0,0-15.75,1.21-25.85,1.21-9.55,0-25.58-1.35-25.58-1.35-5.25-.27-5.93,7.67-.67,7.94,0,0,4.85.55,10.1.81l15.08,41.33-21.27,63.54L48.05,61.93c5.82-.27,11.07-.9,11.07-.9,5.25-.67,4.63-8.35-.58-8.04,0,0-15.67,1.24-25.79,1.24-1.79,0-3.93-.07-6.19-.13C44.08,28.27,73.91,10.9,107.7,10.9c25.21,0,48.15,9.62,65.39,25.43-.41-.03-.82-.08-1.27-.08-9.51,0-16.26,8.28-16.26,17.18,0,7.99,4.6,14.75,9.51,22.72,3.69,6.46,7.99,14.75,7.99,26.72,0,8.21-3.18,17.9-7.37,31.22l-9.65,32.17-35-104.2s0,.13,0,.13Zm-13.35,142.3c-9.5,0-18.68-1.37-27.36-3.92l29.05-84.42,29.75,81.55c.22.48.45.91.7,1.34-10.05,3.53-20.87,5.47-32.15,5.47M10.87,107.7c0-14.04,3.02-27.37,8.39-39.4l46.17,126.54c-32.27-15.7-54.55-48.81-54.56-87.14M107.7,0C48.33,0,0,48.33,0,107.7s48.33,107.7,107.7,107.7,107.7-48.33,107.7-107.7S167.07,0,107.7,0"/>
  </g>
</svg>