<?xml version="1.0" encoding="UTF-8"?>
<svg id="Layer_2" data-name="Layer 2" xmlns="http://www.w3.org/2000/svg" viewBox="0 0 254.6 190.93">
  <defs>
    <style>
      .cls-1 {
        fill: #fef8f2;
        stroke-width: 0px;
      }
    </style>
  </defs>
  <g id="icon2">
    <path class="cls-1" d="m219.23,109.76c-8.88.05-16.6,2.19-23.07,5.35-2.37-4.7-4.74-8.88-5.16-11.95-.47-3.58-1.02-5.77-.47-10.04.56-4.28,3.07-10.37,3.02-10.84s-.56-2.65-5.67-2.7-9.53.98-10.04,2.33-1.49,4.42-2.14,7.58c-.88,4.65-10.23,21.25-15.58,29.95-1.72-3.39-3.21-6.37-3.53-8.74-.47-3.58-1.02-5.77-.47-10.04.56-4.28,3.07-10.37,3.02-10.84s-.56-2.65-5.67-2.7-9.53.98-10.04,2.33-1.07,4.51-2.14,7.58c-1.07,3.07-13.49,30.79-16.74,37.95-1.67,3.67-3.12,6.6-4.14,8.6h0s-.05.14-.19.37c-.88,1.72-1.4,2.65-1.4,2.65v.05c-.7,1.26-1.44,2.42-1.81,2.42-.28,0-.79-3.35.09-7.91,1.86-9.63,6.28-24.6,6.23-25.11,0-.28.84-2.88-2.88-4.23-3.63-1.35-4.93.88-5.25.88s-.56.79-.56.79c0,0,4.05-16.83-7.72-16.83-7.35,0-17.49,8.05-22.51,15.3-3.16,1.72-9.91,5.39-17.11,9.35-2.74,1.53-5.58,3.07-8.23,4.51-.19-.19-.37-.42-.56-.6-14.23-15.21-40.55-25.95-39.44-46.36.42-7.44,2.98-26.97,50.55-50.69,39.16-19.3,70.31-13.95,75.71-2.09,7.72,16.93-16.69,48.36-57.15,52.92-15.44,1.72-23.53-4.23-25.58-6.46-2.14-2.33-2.46-2.46-3.26-2-1.3.7-.47,2.79,0,4,1.21,3.16,6.18,8.74,14.6,11.49,7.44,2.42,25.53,3.77,47.43-4.7,24.51-9.49,43.67-35.85,38.04-57.94C153.8.94,116.6-6.45,81.39,6.06c-20.93,7.44-43.62,19.16-59.94,34.41C2.06,58.61-1.01,74.37.24,80.98c4.51,23.44,36.83,38.69,49.76,49.99-.65.37-1.26.7-1.77.98-6.46,3.21-31.11,16.09-37.25,29.72-6.98,15.44,1.12,26.51,6.46,28,16.6,4.6,33.67-3.67,42.83-17.35,9.16-13.67,8.05-31.44,3.81-39.57-.05-.09-.09-.19-.19-.28,1.67-.98,3.39-2,5.07-2.98,3.3-1.95,6.56-3.77,9.35-5.25-1.58,4.32-2.74,9.49-3.3,16.93-.7,8.74,2.88,20.09,7.58,24.55,2.09,1.95,4.56,2,6.14,2,5.49,0,7.95-4.56,10.7-9.95,3.35-6.6,6.37-14.28,6.37-14.28,0,0-3.77,20.74,6.46,20.74,3.72,0,7.49-4.84,9.16-7.3v.05s.09-.14.28-.47c.37-.6.6-.98.6-.98v-.09c1.49-2.6,4.84-8.51,9.81-18.32,6.42-12.65,12.6-28.46,12.6-28.46,0,0,.56,3.86,2.46,10.28,1.12,3.77,3.44,7.91,5.3,11.9-1.49,2.09-2.42,3.26-2.42,3.26l.05.05c-1.21,1.58-2.51,3.3-3.95,4.98-5.07,6.05-11.11,12.97-11.95,14.97-.98,2.37-.74,4.09,1.12,5.49,1.35,1.02,3.77,1.16,6.23,1.02,4.56-.33,7.77-1.44,9.35-2.14,2.46-.88,5.35-2.23,8.05-4.23,4.98-3.67,8-8.93,7.72-15.86-.14-3.81-1.4-7.63-2.93-11.21.47-.65.88-1.3,1.35-1.95,7.86-11.49,13.95-24.09,13.95-24.09,0,0,.56,3.86,2.46,10.28.93,3.26,2.84,6.79,4.51,10.23-7.39,6-11.95,12.97-13.58,17.53-2.93,8.46-.65,12.28,3.67,13.16,1.95.42,4.74-.51,6.79-1.4,2.6-.84,5.67-2.28,8.6-4.42,4.98-3.67,9.77-8.79,9.49-15.72-.14-3.16-.98-6.28-2.14-9.3,6.28-2.6,14.37-4.05,24.69-2.84,22.14,2.6,26.51,16.42,25.67,22.23s-5.49,8.98-7.02,9.95-2.05,1.3-1.91,2c.19,1.02.93.98,2.23.79,1.81-.33,11.63-4.7,12.04-15.39.7-13.67-12.32-28.6-35.34-28.46Zm-170.76,57.57c-7.35,8-17.58,11.02-22,8.46-4.74-2.74-2.88-14.56,6.14-23.02,5.49-5.16,12.56-9.95,17.25-12.88,1.07-.65,2.65-1.58,4.56-2.74.33-.19.51-.28.51-.28h0c.37-.23.74-.47,1.12-.7,3.3,12.09.14,22.74-7.58,31.16Zm53.48-36.37c-2.56,6.23-7.91,22.18-11.16,21.3-2.79-.74-4.51-12.84-.56-24.79,2-6,6.23-13.16,8.7-15.95,4-4.46,8.42-5.95,9.49-4.14,1.35,2.37-4.88,19.67-6.46,23.58Zm44.13,21.11c-1.07.56-2.09.93-2.56.65-.33-.19.47-.93.47-.93,0,0,5.53-5.95,7.72-8.65,1.26-1.58,2.74-3.44,4.32-5.53v.6c0,7.12-6.88,11.9-9.95,13.86Zm34.04-7.77c-.79-.56-.65-2.42,2-8.23,1.02-2.28,3.44-6.09,7.58-9.77.47,1.49.79,2.93.74,4.28-.05,8.98-6.46,12.32-10.32,13.72Z"/>
  </g>
</svg>