<?xml version="1.0" encoding="UTF-8"?>
<svg id="Layer_2" data-name="Layer 2" xmlns="http://www.w3.org/2000/svg" viewBox="0 0 291.7 109.83">
  <defs>
    <style>
      .cls-1 {
        fill: #fef8f2;
        stroke-width: 0px;
      }
    </style>
  </defs>
  <g id="icon2">
    <g>
      <path class="cls-1" d="m214.68,90.16l8.43-21.31h24.33l-11.55-32.33L250.33,0l41.36,109.83h-30.5l-7.07-19.67h-39.44Z"/>
      <path class="cls-1" d="m188.66,109.83L232.94,0h-29.36l-30.29,70.97L151.75,0h-22.57l-23.13,70.97-16.31-32.34-14.76,45.47,14.99,25.72h28.89l20.9-63.65,19.93,63.65h28.97"/>
      <path class="cls-1" d="m27.87,72.13h18.08c5.48,0,10.36-.61,14.63-1.84l4.68-14.41,13.07-40.27c-1-1.58-2.13-3.07-3.41-4.48C68.21,3.71,58.39,0,45.46,0H0v109.83h27.87v-37.7h0Zm23.94-46.86c2.62,2.64,3.93,6.17,3.93,10.59s-1.15,7.99-3.46,10.6c-2.53,2.9-7.18,4.35-13.96,4.35h-10.45v-29.5h10.53c6.32,0,10.79,1.32,13.41,3.96"/>
    </g>
  </g>
</svg>