<?xml version="1.0" encoding="UTF-8"?>
<svg id="Layer_2" data-name="Layer 2" xmlns="http://www.w3.org/2000/svg" viewBox="0 0 216.51 211.15">
  <defs>
    <style>
      .cls-1 {
        fill: #fef8f2;
        stroke-width: 0px;
      }
    </style>
  </defs>
  <g id="icon2">
    <path class="cls-1" d="m108.25,0C48.44,0,0,48.47,0,108.25c0,47.84,31.01,88.41,74.02,102.71,5.41,1.02,7.4-2.33,7.4-5.21,0-2.57-.09-9.38-.14-18.4-30.11,6.53-36.46-14.52-36.46-14.52-4.93-12.49-12.04-15.83-12.04-15.83-9.81-6.71.76-6.58.76-6.58,10.87.76,16.58,11.15,16.58,11.15,9.65,16.55,25.34,11.77,31.53,9,.97-7,3.76-11.77,6.86-14.48-24.04-2.71-49.31-12.02-49.31-53.5,0-11.82,4.19-21.47,11.14-29.05-1.22-2.73-4.87-13.74.95-28.65,0,0,9.07-2.9,29.77,11.1,8.66-2.41,17.86-3.6,27.06-3.65,9.2.05,18.4,1.24,27.06,3.65,20.57-14,29.63-11.1,29.63-11.1,5.82,14.91,2.17,25.92,1.08,28.65,6.9,7.58,11.1,17.23,11.1,29.05,0,41.59-25.3,50.74-49.39,53.41,3.79,3.25,7.31,9.89,7.31,20.03,0,14.49-.14,26.13-.14,29.64,0,2.84,1.89,6.22,7.44,5.14,43.31-14.2,74.3-54.79,74.3-102.56C216.51,48.47,168.04,0,108.25,0"/>
  </g>
</svg>