<?xml version="1.0" encoding="UTF-8"?>
<svg id="Layer_2" data-name="Layer 2" xmlns="http://www.w3.org/2000/svg" viewBox="0 0 329.35 159.67">
  <defs>
    <style>
      .cls-1 {
        fill: #fef8f2;
        stroke-width: 0px;
      }
    </style>
  </defs>
  <g id="icon2">
    <g>
      <path class="cls-1" d="m184.5,51.14v26.38c0,6.2-5.04,11.24-11.24,11.24h-.23c-2.37,0-4.51-.71-6.31-1.95-2.97-2.03-4.92-5.41-4.92-9.28v-29.2c0-11.5-9.36-20.82-20.86-20.82s-20.86,9.32-20.86,20.82v28.18c0,4.62-2.55,8.64-6.35,10.75-1.73.94-3.76,1.5-5.9,1.5h-.26c-6.76,0-12.25-5.49-12.25-12.25V3.76h.26c8.15,0,15.41,3.98,19.84,10.15,7.03-4.62,15.44-7.33,24.5-7.33,7.97,0,15.41,2.07,21.87,5.71,13.53,7.67,22.7,22.17,22.7,38.85Z"/>
      <path class="cls-1" d="m44.57,0C19.95,0,0,19.95,0,44.57c0,7.67,1.92,14.88,5.3,21.16,4.32,7.97,10.97,14.47,19.01,18.56,6.09,3.12,12.96,4.89,20.25,4.89s14.17-1.77,20.25-4.89c.41,1.58.6,3.19.6,4.89,0,9.39-6.24,17.25-14.69,19.95h-.08c-1.92.6-6.09.9-6.09.9-17.25-.27-19.5,7.25-21.76,15.71-.53,1.8-.79,3.72-.79,5.67,0,.49,0,.98.04,1.47l22.51-1.47,5.37-.34c15.07-1.8,27.84-11.12,34.46-24.12,3.04-6.01,4.77-12.85,4.77-20.1v-42.27C89.17,19.95,69.18,0,44.57,0Zm20.67,47.31c-1.35,10.22-10.11,18.11-20.67,18.11s-19.31-7.89-20.67-18.11c-.11-.9-.19-1.8-.19-2.74,0-11.5,9.36-20.82,20.86-20.82s20.86,9.32,20.86,20.82c0,.94-.08,1.84-.19,2.74Z"/>
      <path class="cls-1" d="m279.87,19.05v71.55c-8.47.8-14.58-3.23-18.75-8.3-7.29,5.22-16.23,8.3-25.85,8.3-7.52,0-14.62-1.88-20.86-5.19-14.13-7.52-23.71-22.36-23.71-39.42v-27.02c0-6.24,5.07-11.35,11.35-11.35h1.01c2.41,0,4.62.75,6.43,1.99,2.97,2.07,4.92,5.49,4.92,9.36v27.32c0,11.5,9.36,20.82,20.86,20.82,10.52,0,20.63-3.91,20.63-17.89v-30.17c0-3.94,1.99-7.44,5.03-9.47h.04c1.8-1.24,3.98-1.95,6.35-1.95h1.13c6.31,0,11.42,5.11,11.42,11.42Z"/>
      <path class="cls-1" d="m119.69,110.98c-4.35,0-8.41,1.13-11.94,3.12v-10.65c0-6.85-5.56-12.41-12.41-12.41v62.42c0,1.72.7,3.26,1.81,4.39,1.13,1.13,2.67,1.83,4.39,1.83,2.44,0,4.58-1.42,5.58-3.49,3.67,2.22,7.98,3.49,12.58,3.49,13.44,0,24.34-10.92,24.34-24.36s-10.9-24.34-24.34-24.34Zm0,35.56c-6.3,0-11.39-5.09-11.39-11.39s5.09-11.37,11.39-11.37,11.37,5.09,11.37,11.37-5.09,11.39-11.37,11.39Z"/>
      <path class="cls-1" d="m169.57,110.81c-13.45,0-24.35,10.9-24.35,24.35s10.9,24.35,24.35,24.35,24.35-10.9,24.35-24.35-10.9-24.35-24.35-24.35Zm0,35.89c-6.29,0-11.38-5.1-11.38-11.38s5.1-11.38,11.38-11.38,11.38,5.1,11.38,11.38-5.1,11.38-11.38,11.38Z"/>
      <path class="cls-1" d="m245.85,133.32v1.83c0-.62-.02-1.23-.08-1.83h.08Z"/>
      <path class="cls-1" d="m245.77,133.32c-.92-12.6-11.45-22.51-24.28-22.51s-24.34,10.9-24.34,24.34,10.9,24.36,24.34,24.36c5.46,0,10.49-1.81,14.55-4.82,2.26,2.93,5.81,4.82,9.81,4.82v-24.36c0-.62-.02-1.23-.08-1.83Zm-24.28,13.38c-6.28,0-11.39-5.11-11.39-11.39s5.11-11.39,11.39-11.39,11.39,5.11,11.39,11.39-5.11,11.39-11.39,11.39Z"/>
      <path class="cls-1" d="m317.28,102.56v11.57c-3.59-2.11-7.8-3.32-12.27-3.32-13.46,0-24.36,10.9-24.36,24.34s10.9,24.36,24.36,24.36c4.68,0,9.05-1.33,12.76-3.63.92,2.13,3.06,3.63,5.54,3.63,3.35,0,6.03-2.71,6.03-6.03v-62.98c-6.67,0-12.07,5.42-12.07,12.07Zm-11.94,44.69c-6.59,0-11.94-5.34-11.94-11.94s5.36-11.94,11.94-11.94,11.94,5.36,11.94,11.94-5.36,11.94-11.94,11.94Z"/>
      <path class="cls-1" d="m284.91,114.36h-11.76c-.95,0-1.89.09-2.82.28-2.96.61-7.91,2.15-12.52,6.24-4.94,4.39-7.07,9.57-7.99,12.75-.36,1.26-.54,2.55-.54,3.86v17.11c.84,3.1,3.75,5.15,6.83,4.9,2.81-.23,5.2-2.34,5.82-5.2v-14.41c0-4.84,2.37-9.54,6.59-11.92.37-.21.75-.4,1.14-.57,3.91-1.73,6.53-.55,9.64-2.4,2.14-1.27,4.59-4.03,5.62-10.65Z"/>
    </g>
  </g>
</svg>