<?xml version="1.0" encoding="UTF-8"?>
<svg id="Layer_2" data-name="Layer 2" xmlns="http://www.w3.org/2000/svg" viewBox="0 0 243.04 193.95">
  <defs>
    <style>
      .cls-1 {
        fill: #fef8f2;
        stroke-width: 0px;
      }
    </style>
  </defs>
  <g id="icon2">
    <g>
      <path class="cls-1" d="m125.58,102.03h-24.71v33.89h24.71c12,0,20.14-5.65,20.14-16.94,0-9.36-5.41-16.95-20.14-16.95Z"/>
      <path class="cls-1" d="m215.58,35.33v-10.13c0-13.92-11.28-25.2-25.2-25.2H51.6c-13.92,0-25.2,11.28-25.2,25.2v24.44c-2.61,21.46-10.09,40.48-26.4,41.25v12.17c16.31.77,23.79,19.79,26.4,41.25v24.44c0,13.92,11.28,25.2,25.2,25.2h138.78c13.92,0,25.2-11.28,25.2-25.2v-10.13c.81-26.54,7.57-54.62,27.46-55.56v-12.17c-19.89-.94-26.65-29.02-27.46-55.56Zm-85.07,113.29c-.39,0-.78-.01-1.17-.02v.02h-45.06V45.39h41.3v.05c.63-.03,1.28-.05,1.94-.05,16.6,0,30.06,8.41,30.06,25.14,0,12.74-7.79,20.65-18.83,23.7,14.19,2.44,24.67,11.41,24.67,26.86,0,17.36-14.74,27.53-32.91,27.53Z"/>
      <path class="cls-1" d="m141.03,73.91c0-8.52-7.39-15.42-16.49-15.42h-23.67v30.84h23.67c9.1,0,16.49-6.9,16.49-15.42Z"/>
    </g>
  </g>
</svg>