<?xml version="1.0" encoding="UTF-8"?>
<svg id="Layer_2" data-name="Layer 2" xmlns="http://www.w3.org/2000/svg" viewBox="0 0 245.46 218.94">
  <defs>
    <style>
      .cls-1 {
        fill: #fef8f2;
        stroke-width: 0px;
      }
    </style>
  </defs>
  <g id="icon2">
    <g>
      <circle class="cls-1" cx="122.73" cy="109.47" r="21.85"/>
      <path class="cls-1" d="m207.59,72.68c-4.24-1.62-8.73-3.1-13.45-4.44,1.19-4.75,2.16-9.39,2.88-13.86,4.14-25.81-.45-44-12.92-51.19-12.47-7.2-30.51-2.08-50.8,14.41-3.52,2.86-7.05,6.01-10.57,9.42-3.52-3.41-7.05-6.56-10.57-9.42C91.88,1.1,73.83-4.02,61.37,3.18c-12.47,7.2-17.06,25.38-12.92,51.19.72,4.48,1.68,9.11,2.88,13.86-4.71,1.34-9.21,2.82-13.45,4.44C13.45,82.01,0,95.07,0,109.47s13.45,27.46,37.87,36.79c4.24,1.62,8.73,3.1,13.45,4.44-1.2,4.75-2.16,9.39-2.88,13.86-4.14,25.81.45,43.99,12.92,51.19,3.69,2.13,7.86,3.18,12.43,3.18,10.9,0,24.07-5.97,38.36-17.59,3.52-2.86,7.05-6.01,10.57-9.42,3.52,3.41,7.05,6.56,10.57,9.42,14.29,11.62,27.46,17.59,38.36,17.59,4.57,0,8.75-1.05,12.43-3.18,12.47-7.2,17.06-25.38,12.92-51.19-.72-4.48-1.68-9.11-2.88-13.86,4.71-1.34,9.21-2.82,13.45-4.44,24.42-9.33,37.87-22.39,37.87-36.79s-13.45-27.46-37.87-36.79Zm-35.93-61.66c2.64,0,4.98.56,6.94,1.69,9.57,5.53,11.67,25.52,4.85,52.82-10.12-2.28-21.03-3.98-32.44-5.03-6.61-9.35-13.53-17.95-20.57-25.57,16.08-15.54,30.98-23.91,41.22-23.91Zm-14.92,118.08c-3.84,6.66-7.8,12.93-11.81,18.82-7.1.53-14.51.81-22.19.81s-15.09-.29-22.19-.81c-4.01-5.89-7.96-12.16-11.81-18.82-3.84-6.66-7.3-13.22-10.39-19.63,3.09-6.41,6.55-12.97,10.39-19.63,3.84-6.66,7.8-12.93,11.81-18.82,7.1-.53,14.51-.81,22.19-.81s15.09.29,22.19.81c4.01,5.89,7.96,12.16,11.81,18.82,3.84,6.66,7.3,13.22,10.39,19.63-3.09,6.41-6.55,12.97-10.39,19.63Zm16.22-6.73c2.97,7.07,5.46,13.91,7.5,20.42-6.66,1.49-13.82,2.75-21.43,3.71,2.47-3.88,4.9-7.84,7.24-11.91,2.35-4.06,4.57-8.14,6.69-12.23Zm-50.22,53.74c-4.62-5.02-9.29-10.6-13.93-16.7,4.59.2,9.24.32,13.93.32s9.34-.12,13.93-.32c-4.64,6.11-9.31,11.69-13.93,16.7Zm-36.29-29.61c-7.61-.97-14.78-2.22-21.43-3.71,2.04-6.51,4.53-13.34,7.5-20.42,2.12,4.08,4.34,8.16,6.69,12.23,2.35,4.06,4.77,8.03,7.24,11.91Zm-13.93-49.94c-2.97-7.07-5.46-13.91-7.5-20.42,6.66-1.49,13.82-2.75,21.43-3.71-2.47,3.88-4.9,7.84-7.24,11.91s-4.57,8.14-6.69,12.23Zm50.22-53.74c4.62,5.02,9.29,10.6,13.93,16.7-4.59-.2-9.24-.32-13.93-.32s-9.33.12-13.93.32c4.64-6.11,9.31-11.69,13.93-16.7Zm43.53,41.52c-2.35-4.06-4.77-8.03-7.24-11.91,7.61.97,14.78,2.22,21.43,3.71-2.04,6.51-4.53,13.34-7.5,20.42-2.12-4.08-4.34-8.16-6.69-12.23ZM66.87,12.71c1.96-1.13,4.3-1.69,6.94-1.69,10.24,0,25.14,8.37,41.22,23.91-7.04,7.62-13.95,16.22-20.57,25.57-11.41,1.05-22.32,2.75-32.44,5.03-6.82-27.3-4.73-47.29,4.85-52.82ZM11,109.47c0-11.06,16.27-22.86,43.32-30.61,3.08,9.91,7.07,20.2,11.86,30.61-4.79,10.41-8.78,20.7-11.86,30.61-27.06-7.75-43.32-19.55-43.32-30.61Zm62.81,98.45c-2.64,0-4.98-.56-6.94-1.69-9.57-5.53-11.67-25.52-4.85-52.82,10.12,2.28,21.03,3.98,32.44,5.03,6.62,9.35,13.53,17.95,20.57,25.57-16.08,15.54-30.98,23.91-41.22,23.91Zm104.79-1.69c-1.96,1.13-4.3,1.69-6.94,1.69-10.24,0-25.14-8.37-41.22-23.91,7.04-7.62,13.95-16.22,20.57-25.57,11.41-1.05,22.32-2.75,32.44-5.03,6.82,27.3,4.73,47.29-4.85,52.82Zm12.54-66.15c-3.08-9.91-7.07-20.2-11.86-30.61,4.79-10.41,8.78-20.7,11.86-30.61,27.06,7.75,43.32,19.55,43.32,30.61s-16.27,22.86-43.32,30.61Z"/>
    </g>
  </g>
</svg>