<?xml version="1.0" encoding="UTF-8"?>
<svg id="Layer_2" data-name="Layer 2" xmlns="http://www.w3.org/2000/svg" viewBox="0 0 187.63 265.21">
  <defs>
    <style>
      .cls-1 {
        fill: #fef8f2;
        stroke-width: 0px;
      }
    </style>
  </defs>
  <g id="icon2">
    <g>
      <g>
        <polygon class="cls-1" points="52.03 11.18 52.03 25.75 67.83 25.75 67.83 36.93 39.35 36.93 39.35 0 67.83 0 67.83 11.18 52.03 11.18"/>
        <polygon class="cls-1" points="107.75 11.18 91.88 11.18 107.75 27.05 107.75 36.93 73.77 36.93 73.77 25.75 90.65 25.75 73.77 11.18 73.77 0 107.75 0 107.75 11.18"/>
        <polygon class="cls-1" points="147.6 11.18 131.73 11.18 147.6 27.05 147.6 36.93 113.62 36.93 113.62 25.75 130.5 25.75 113.62 11.18 113.62 0 147.6 0 147.6 11.18"/>
      </g>
      <path class="cls-1" d="m0,50.78h187.63l-17.07,192.66-76.95,21.77-76.52-21.78L0,50.78Zm152.69,39.43l-117.76-.03,1.9,23.43,90.46.02-2.28,24.27h-59.33l2.14,22.99h55.23l-3.27,31.48-26,7.18-26.41-7.24-1.68-18.85h-23.32l2.59,34.44,48.83,15.22,48.01-13.67,10.87-119.22h0Z"/>
    </g>
  </g>
</svg>