<?xml version="1.0" encoding="UTF-8"?>
<svg id="Layer_2" data-name="Layer 2" xmlns="http://www.w3.org/2000/svg" viewBox="0 0 238.84 190.51">
  <defs>
    <style>
      .cls-1 {
        fill: #fef8f2;
        stroke-width: 0px;
      }
    </style>
  </defs>
  <g id="icon2">
    <g>
      <polygon class="cls-1" points="136.67 101.7 135.79 189.43 203.95 146.76 207.04 68.71 136.67 101.7"/>
      <polygon class="cls-1" points="35.59 155.48 130.78 190.51 131.67 101.99 31.58 73.71 35.59 155.48"/>
      <path class="cls-1" d="m168.81,51.09c1.35.3,2.19,1.64,1.89,2.99-.3,1.35-1.64,2.19-2.99,1.89l-54.66-12.28v35.15c0,1.38-1.12,2.5-2.5,2.5,0,0-.01,0-.02,0l23.33,15.56,40.13-39.68c.24-.24.53-.42.84-.55l39.92-15.7c1.28-.5,2.74.13,3.24,1.41.51,1.29-.13,2.74-1.41,3.24l-39.44,15.51-30.9,30.55,62.15-29.13,30.42-27.13-13.94,5.58c-1.01.4-2.17.11-2.86-.74-.08-.09-.14-.19-.21-.3l-.9.36.64-.98c-.19-.68-.09-1.42.31-2.03l10.99-16.87L138.92,4.34l-24.18,34.6,54.07,12.15Z"/>
      <path class="cls-1" d="m20.04,52.91c.34.53.44,1.15.34,1.75l.52.8-.69-.2c-.07.17-.14.34-.26.49-.62.84-1.69,1.2-2.69.92l-11.98-3.39,24.52,14.74,89.81,25.37-24.71-16.48c-22.97-5.63-66.16-16.2-67.98-16.56-1.35-.27-2.23-1.59-1.96-2.94s1.59-2.23,2.94-1.96c2.39.48,65.91,16.05,68.62,16.71.28.07.55.19.79.35l10.96,7.31c-.13-.3-.2-.63-.2-.97v-34.64l-41.75,16.03c-.29.11-.6.17-.9.17-1,0-1.95-.61-2.33-1.6-.49-1.29.15-2.74,1.44-3.23l42.14-16.18L78.71,0,0,21.79l20.04,31.12Z"/>
    </g>
  </g>
</svg>