<?xml version="1.0" encoding="UTF-8"?>
<svg id="Layer_2" data-name="Layer 2" xmlns="http://www.w3.org/2000/svg" viewBox="0 0 188.45 266.04">
  <defs>
    <style>
      .cls-1 {
        fill-rule: evenodd;
      }

      .cls-1, .cls-2 {
        fill: #fef8f2;
        stroke-width: 0px;
      }
    </style>
  </defs>
  <g id="icon2">
    <g>
      <g>
        <polygon class="cls-2" points="53.41 0 53.41 37.34 41.6 37.34 41.6 24.66 29.5 24.66 29.5 37.34 17.69 37.34 17.69 0 29.5 0 29.5 12.85 41.6 12.85 41.6 0 53.41 0"/>
        <polygon class="cls-2" points="91.3 0 91.3 11.81 79.35 11.81 79.35 37.34 67.54 37.34 67.54 11.81 57.68 11.81 57.68 0 91.3 0"/>
        <polygon class="cls-2" points="137.94 0 137.94 37.34 126.13 37.34 126.13 18.65 117.63 33.04 117.1 33.96 116.57 33.06 108.07 18.67 108.07 37.34 96.23 37.34 96.23 0 109.25 0 117.1 10.99 124.95 0 137.94 0"/>
        <polygon class="cls-2" points="171.25 25.53 171.25 37.34 143.38 37.34 143.38 0 155.19 0 155.19 25.53 171.25 25.53"/>
      </g>
      <path class="cls-1" d="m0,52.33l17.15,192.33,76.96,21.37,77.17-21.39,17.18-192.31H0Zm151.11,62.92H60.85l2.16,24.16h85.97l-6.47,72.42-48.38,13.41-48.33-13.41-3.3-37.06h23.69l1.69,18.83,26.28,7.08.05-.02,26.28-7.1,2.73-30.59H41.44l-6.35-71.34h118.16l-2.14,23.62h0Z"/>
    </g>
  </g>
</svg>