<?xml version="1.0" encoding="UTF-8"?>
<svg id="Layer_2" data-name="Layer 2" xmlns="http://www.w3.org/2000/svg" viewBox="0 0 227.5 227.5">
  <defs>
    <style>
      .cls-1 {
        fill: #fef8f2;
        stroke-width: 0px;
      }
    </style>
  </defs>
  <g id="icon2">
    <path class="cls-1" d="m14.46,53.43c-20.15,30.05-17.65,69.14-2.25,101.06.35.78.74,1.52,1.12,2.25.22.51.46.98.73,1.48.12.27.29.55.45.81.25.51.51,1,.77,1.5l1.49,2.62c.28.48.54.95.85,1.44.53.93,1.14,1.84,1.69,2.77.25.39.47.77.75,1.15.92,1.5,1.9,2.96,2.94,4.38.74,1.05,1.48,2.08,2.27,3.1.26.37.55.75.82,1.13l2.09,2.65c.27.3.52.66.8.97.93,1.16,1.91,2.29,2.9,3.44l.05.06c1.2,1.58,2.55,3.03,4.03,4.33.76.82,1.52,1.62,2.32,2.41l.96.95c1.05,1.03,2.11,2.06,3.22,3.04.02,0,.03.02.05.03l.54.49c.97.88,1.94,1.75,2.94,2.56l1.18,1.03c.81.67,1.65,1.31,2.46,1.97l1.3,1.03c.88.69,1.82,1.37,2.72,2.04.33.25.66.49,1,.72l.28.23,2.65,1.82,1.14.79c1.4.93,2.79,1.81,4.17,2.68.39.2.8.43,1.17.67,1.02.61,2.09,1.23,3.12,1.8.57.33,1.16.62,1.74.92.71.41,1.45.82,2.22,1.23.18.06.36.13.53.23.31.15.61.3.91.46,1.14.59,2.32,1.16,3.55,1.72.23.1.47.2.72.34,1.36.62,2.74,1.21,4.15,1.79.32.1.66.27,1,.39,1.28.5,2.6,1.01,3.9,1.5l.47.18c1.46.51,2.89,1,4.36,1.48.34.1.69.23,1.05.32,1.52.47,2.98,1.03,4.49,1.35,97.38,18.42,125.67-60.79,125.67-60.79-23.77,32.14-65.95,40.61-105.92,31.19-1.48-.35-2.96-.85-4.45-1.3-1.8-.56-3.6-1.15-5.37-1.79l-.59-.24c-1.29-.45-2.53-.95-3.79-1.46-.34-.14-.69-.28-1.04-.39-1.4-.59-2.75-1.19-4.1-1.81-.29-.1-.54-.24-.83-.35-1.15-.55-2.29-1.11-3.43-1.67-.34-.16-.68-.33-1-.51-.89-.43-1.78-.94-2.65-1.41-.6-.3-1.19-.61-1.77-.94-1.08-.59-2.15-1.23-3.22-1.84-.32-.24-.69-.43-1.06-.65-1.4-.86-2.79-1.75-4.16-2.66-.38-.24-.75-.5-1.12-.77-1.01-.65-1.99-1.33-2.96-2.04-.33-.23-.64-.47-.98-.72-.94-.68-1.88-1.37-2.8-2.09-.4-.33-.82-.65-1.25-.98-.83-.69-1.68-1.33-2.51-2.05l-1.12-.94c-1.08-.9-2.14-1.81-3.18-2.76-.11-.11-.23-.21-.35-.3l-3.29-3.11-.95-.93c-.78-.83-1.57-1.61-2.37-2.42l-.93-.98c-1-1.03-1.98-2.09-2.93-3.18l-.14-.16c-1-1.14-1.99-2.31-2.97-3.49-.26-.3-.5-.63-.76-.95l-2.15-2.73c-1.09-1.46-2.17-2.93-3.22-4.42-22.16-31.4-30.18-74.76-12.45-110.32m46.85-4.65c-14.6,21.76-13.78,50.87-2.41,73.89,1.88,3.87,4.03,7.6,6.43,11.15,2.18,3.25,4.59,7.1,7.52,9.72,1.01,1.2,2.11,2.36,3.26,3.54l.85.89c1.08,1.08,2.2,2.14,3.32,3.2l.15.13c1.28,1.16,2.59,2.28,3.92,3.37.32.23.6.49.91.72,1.33,1.06,2.67,2.09,4.06,3.11l.14.09c.59.44,1.21.85,1.88,1.28.27.18.57.41.85.59,1,.67,1.99,1.3,3.01,1.94.16.07.3.16.45.23.85.54,1.78,1.06,2.67,1.54.31.2.62.34.95.53.63.32,1.25.67,1.87,1l.3.14c1.28.66,2.59,1.27,3.87,1.87.32.14.6.25.87.38,1.05.47,2.12.93,3.18,1.35.47.17.92.36,1.36.51.97.37,1.99.72,2.94,1.06l1.33.44c1.39.44,2.8,1.02,4.26,1.28,75.17,12.92,92.57-47.19,92.57-47.19-15.67,23.42-45.99,34.57-78.31,25.86-1.43-.38-2.85-.81-4.26-1.28-.45-.14-.85-.29-1.29-.42-.99-.35-2-.69-2.96-1.07l-1.36-.53c-1.07-.44-2.15-.86-3.18-1.33-.32-.15-.62-.25-.86-.39-1.33-.62-2.66-1.23-3.96-1.89l-1.95-1.05-1.13-.59c-.85-.47-1.69-.96-2.51-1.48-.2-.1-.4-.22-.59-.34-1-.65-2.06-1.28-3.01-1.95-.32-.19-.62-.41-.92-.61l-1.97-1.34c-1.36-.98-2.7-2.05-4.06-3.08-.3-.29-.6-.52-.89-.78-14.21-11.59-25.41-27.46-30.73-45.4-5.59-18.67-4.36-39.59,5.31-56.59m40.68-1.45c-8.62,13.13-9.44,29.42-3.51,43.89,6.3,15.38,19.19,27.46,34.2,33.16.62.25,1.21.45,1.86.69l.83.27c.87.3,1.75.62,2.65.83,41.53,8.32,52.77-22.14,55.79-26.61-9.89,14.74-26.47,18.27-46.81,13.14-1.66-.43-3.29-.96-4.89-1.57-1.99-.73-3.95-1.56-5.86-2.5-3.61-1.81-7.05-3.99-10.26-6.5-18.22-14.34-29.51-41.69-17.62-63.97"/>
  </g>
</svg>