<?xml version="1.0" encoding="UTF-8"?>
<svg id="Layer_2" data-name="Layer 2" xmlns="http://www.w3.org/2000/svg" viewBox="0 0 295.46 177.27">
  <defs>
    <style>
      .cls-1 {
        fill: #fef8f2;
        stroke-width: 0px;
      }
    </style>
  </defs>
  <g id="icon2">
    <path class="cls-1" d="m147.73,0c-39.39,0-64.02,19.7-73.86,59.09,14.77-19.7,32.01-27.08,51.7-22.16,11.24,2.81,19.27,10.96,28.17,19.99,14.49,14.7,31.24,31.71,67.86,31.71,39.39,0,64.02-19.7,73.86-59.09-14.77,19.7-32.01,27.08-51.7,22.16-11.24-2.81-19.27-10.96-28.17-19.99C201.11,17.01,184.35,0,147.73,0Zm-73.86,88.64c-39.39,0-64.02,19.7-73.86,59.09,14.77-19.7,32.01-27.08,51.7-22.16,11.24,2.81,19.27,10.96,28.17,19.99,14.49,14.7,31.24,31.71,67.86,31.71,39.39,0,64.02-19.7,73.86-59.09-14.77,19.7-32.01,27.08-51.7,22.16-11.24-2.81-19.27-10.96-28.17-19.99-14.48-14.7-31.23-31.71-67.86-31.71Z"/>
  </g>
</svg>