<?xml version="1.0" encoding="UTF-8"?>
<svg id="Layer_2" data-name="Layer 2" xmlns="http://www.w3.org/2000/svg" viewBox="0 0 224.77 224.77">
  <defs>
    <style>
      .cls-1 {
        fill: #fef8f2;
        stroke-width: 0px;
      }
    </style>
  </defs>
  <g id="icon2">
    <path class="cls-1" d="m0,0h224.77v224.77H0V0Zm206.36,171.17c-1.64-10.26-8.32-18.87-28.12-26.91-6.89-3.23-14.55-5.48-16.83-10.68-.85-3.09-.98-4.78-.43-6.6,1.4-6.05,8.57-7.87,14.19-6.18,3.65,1.12,7.02,3.93,9.14,8.43q9.68-6.33,16.44-10.54c-2.53-3.93-3.78-5.63-5.49-7.31-5.9-6.6-13.76-9.97-26.54-9.68l-6.6.83c-6.33,1.55-12.36,4.92-16.02,9.41-10.68,12.09-7.6,33.16,5.33,41.87,12.78,9.55,31.48,11.65,33.87,20.65,2.25,10.96-8.15,14.47-18.41,13.21-7.6-1.69-11.8-5.49-16.44-12.51l-17.14,9.84c1.97,4.5,4.21,6.45,7.59,10.39,16.3,16.45,57.04,15.6,64.35-9.4.27-.84,2.25-6.6.69-15.45,0,0,.43.63.43.63Zm-84.13-67.85h-21.05c0,18.15-.08,36.19-.08,54.37,0,11.54.59,22.13-1.29,25.39-3.09,6.45-11.05,5.63-14.67,4.5-3.71-1.84-5.59-4.36-7.77-8.01-.59-.98-1.03-1.84-1.19-1.84l-17.09,10.54c2.86,5.9,7.02,10.98,12.4,14.21,8.01,4.78,18.77,6.32,30.04,3.79,7.33-2.12,13.66-6.47,16.96-13.21,4.78-8.71,3.76-19.39,3.72-31.34.11-19.24,0-38.48,0-57.87,0,0,.04-.52.04-.52Z"/>
  </g>
</svg>