<?xml version="1.0" encoding="UTF-8"?>
<svg id="Layer_2" data-name="Layer 2" xmlns="http://www.w3.org/2000/svg" viewBox="0 0 238.17 247.99">
  <defs>
    <style>
      .cls-1 {
        fill: #fef8f2;
        stroke-width: 0px;
      }
    </style>
  </defs>
  <g id="icon2">
    <g>
      <path class="cls-1" d="m163.58,11.67c16.61,10.19,28.84,26.19,34.32,44.89,5.47,18.7,3.8,38.77-4.7,56.31-8.5,17.54-23.21,31.29-41.28,38.59-18.07,7.3-38.21,7.62-56.5.9l-.9-.33,1.46-.48,1.88-.61.92-.31.92-.31,1.78-.59,1.78-.63,1.74-.64,1.71-.64.85-.32,1.67-.64c1.75-.69,3.45-1.39,5.09-2.09l1.23-.53,1.52-.66,1.95-.9.95-.45,1.4-.68.69-.34.67-.34,1.34-.69c11.17-5.85,18.77-12.27,22.79-19.21,8.59-14.73,1.08-30.6-20.32-46.73l-1.73-1.34-1.07-.81-1.02-.81-1.01-.8-.96-.8-.48-.39-.47-.39-.9-.79-.66-.58-.64-.58-.85-.71-.8-.76-.77-.76-.37-.37-.37-.38-.71-.74c-8.47-9.01-10.36-16.7-6.52-23.32,1.96-3.39,5.36-6.71,10.17-9.95l.58-.39.92-.59c.42-.27.85-.53,1.29-.79l.65-.39,1.02-.59,1.06-.59.81-.44.82-.43,1.13-.58c.86-.44,1.74-.87,2.66-1.3l.92-.43,1.23-.56.64-.28,1.3-.56.66-.28,1.36-.56.69-.28,1.4-.56.71-.27,1.45-.55,1.49-.55.75-.28,1.53-.54,1.56-.55,1.6-.54.81-.27,1.69-.64,1.67-.53,1.71-.54,1.74-.53,1.77-.53,2.26-.65,2.3-.65,2.84-.76,1.18-.32ZM122.35,0c9.27,0,18.47,1.62,27.17,4.82l.91.34-.58.17-2.8.86-.92.29-1.8.59-1.77.58-1.74.6-1.71.59-1.68.6-.82.37-1.99.7-1.98.76-1.58.63-.76.31-1.5.64c-15.28,6.5-25.3,13.81-30.08,22.09-8.28,14.48-.77,30.11,20.64,46.2l1.76,1.3,1.06.81,1.03.81.5.41.98.8.71.59.7.59.91.79.44.39.85.77c.48.43.93.86,1.37,1.23l.65.64.93.95.88.93c8.42,9.12,10.22,16.97,6.16,23.91-2.54,4.49-7.49,8.91-14.73,13.19l-.68.39-1.08.61-1.12.61c-.63.34-1.23.68-1.94,1.02l-.99.5-1.23.61-1.23.6-1.3.6-.66.29-1.34.6-1.37.6-1.41.59-.71.29-1.46.6-.74.29-.75.28-1.52.59-1.55.59-1.6.58-1.61.58-1.66.58-.83.29-1.69.58-.86.28-1.76.56-1.77.56-2.27.71-2.32.7-1.89.55-2.64.76c-14.64-8.9-25.97-22.34-32.26-38.28-6.29-15.94-7.2-33.5-2.59-50,4.61-16.5,14.5-31.04,28.14-41.4C88.56,5.63,105.22.01,122.35,0Z"/>
      <path class="cls-1" d="m37.86,208.71h-12.09c.06-.78-.07-1.45-.41-2-.34-.55-.82-.97-1.44-1.27-.6-.29-1.28-.44-2.05-.44-1.33,0-2.54.3-3.63.9-1.09.59-1.7,1.36-1.83,2.32-.08.37.04.72.37,1.05.32.32,1.18.63,2.56.9l7.41,1.36c3.7.68,6.4,1.93,8.09,3.73,1.71,1.79,2.32,4.15,1.85,7.09-.44,2.55-1.56,4.74-3.36,6.58-1.8,1.84-4.09,3.25-6.87,4.24-2.76.97-5.82,1.46-9.16,1.46-5.9,0-10.32-1.18-13.26-3.53-2.92-2.36-4.26-5.44-4-9.24h13.06c.03,1.22.44,2.14,1.22,2.75.8.6,1.85.92,3.17.95,1.43.05,2.68-.24,3.75-.85,1.07-.63,1.67-1.42,1.8-2.36.05-.54-.19-.94-.71-1.22-.5-.28-1.47-.55-2.9-.83l-6.43-1.17c-3.7-.67-6.4-2-8.09-4-1.69-2.02-2.27-4.58-1.75-7.7.42-2.49,1.43-4.57,3.02-6.26,1.61-1.69,3.72-2.97,6.34-3.83,2.62-.88,5.64-1.32,9.07-1.32,5.61,0,9.85,1.13,12.72,3.39,2.89,2.24,4.08,5.34,3.56,9.29Zm8.66,25.25l-3.12-37.44h13.45l.49,22.81h.29l8.58-22.81h13.06l1.17,22.62h.29l7.9-22.62h13.45l-15.6,37.44h-14.53l-1.95-20.08h-.39l-8.58,20.08h-14.53Zm53.42,0l6.24-37.44h13.45l-6.24,37.44h-13.45Zm13.55-41.34c-1.82,0-3.29-.6-4.41-1.8-1.12-1.22-1.54-2.66-1.24-4.34.29-1.71,1.19-3.15,2.68-4.34,1.49-1.2,3.15-1.8,4.97-1.8s3.3.6,4.39,1.8c1.09,1.19,1.49,2.63,1.22,4.34-.26,1.67-1.14,3.12-2.63,4.34-1.48,1.2-3.14,1.8-4.97,1.8Zm4.52,55.37l8.63-51.47h13.36l-1.07,6.53h.29c.68-1.27,1.58-2.43,2.68-3.49,1.12-1.07,2.44-1.93,3.95-2.56,1.53-.65,3.22-.97,5.07-.97,2.47,0,4.7.66,6.7,1.97s3.47,3.39,4.41,6.22c.94,2.83,1.04,6.5.29,11.02-.71,4.32-1.99,7.9-3.83,10.75-1.82,2.84-3.96,4.96-6.43,6.36-2.45,1.4-5.01,2.1-7.68,2.1-1.75,0-3.27-.28-4.56-.85-1.28-.59-2.32-1.37-3.1-2.36-.78-1.01-1.32-2.14-1.61-3.41h-.29l-3.31,20.18h-13.5Zm18.67-32.76c-.29,1.82-.32,3.4-.07,4.73.26,1.32.77,2.34,1.54,3.07.78.71,1.79,1.07,3.02,1.07s2.34-.35,3.31-1.05c.97-.71,1.8-1.73,2.49-3.05.68-1.33,1.19-2.92,1.51-4.78.29-1.85.32-3.44.07-4.75-.24-1.33-.74-2.35-1.49-3.05-.75-.72-1.74-1.07-2.97-1.07s-2.36.36-3.39,1.07c-1.01.7-1.86,1.71-2.56,3.05-.68,1.32-1.17,2.9-1.46,4.75Zm45.98,19.4c-4,0-7.31-.76-9.94-2.29-2.63-1.54-4.48-3.75-5.56-6.63-1.07-2.89-1.27-6.35-.58-10.38.65-3.87,1.99-7.25,4.02-10.14,2.05-2.89,4.62-5.14,7.73-6.75,3.12-1.61,6.61-2.41,10.48-2.41,2.83,0,5.31.44,7.43,1.32,2.14.88,3.89,2.15,5.24,3.83,1.35,1.67,2.26,3.7,2.73,6.07.49,2.36.49,5.02,0,7.99l-.49,3.12h-33.44l1.17-7.41h21.06c.16-1.07.06-2.01-.32-2.83-.36-.83-.93-1.47-1.73-1.93-.78-.47-1.72-.71-2.83-.71s-2.14.24-3.12.71c-.96.47-1.78,1.13-2.46,1.97-.67.84-1.11,1.84-1.34,2.97l-1.46,7.8c-.19,1.2-.12,2.27.22,3.22.34.94.93,1.68,1.78,2.22.84.54,1.93.8,3.27.8.91,0,1.77-.12,2.58-.37.83-.26,1.56-.63,2.19-1.12.65-.5,1.17-1.11,1.56-1.83h12.28c-.88,2.6-2.27,4.86-4.17,6.78-1.89,1.9-4.21,3.38-6.97,4.44-2.75,1.04-5.86,1.56-9.33,1.56Zm23.92-.68l6.24-37.44h13.06l-1.17,7.12h.39c1.12-2.63,2.53-4.56,4.22-5.78,1.69-1.22,3.53-1.83,5.53-1.83.58,0,1.15.05,1.68.15.55.08,1.1.19,1.63.34l-1.95,11.5c-.63-.24-1.42-.41-2.36-.51-.94-.11-1.78-.17-2.51-.17-1.3,0-2.52.3-3.66.9-1.12.59-2.08,1.41-2.88,2.49-.78,1.06-1.3,2.3-1.56,3.73l-3.22,19.5h-13.45Z"/>
    </g>
  </g>
</svg>